<svg width="181" height="185" viewBox="0 0 181 185" fill="none" xmlns="http://www.w3.org/2000/svg">
<path d="M127.921 22.2283L138.548 14.1426L135.06 12.4877L126.774 19.2049L126.742 8.53408L123.21 6.85205L123.702 20.2271L127.921 22.2283Z" fill="black"/>
<path d="M138.246 28.9075C139.3 29.7102 140.471 30.3468 141.718 30.7951C142.644 31.1388 143.652 31.1972 144.612 30.9627C145.538 30.6801 146.339 30.0859 146.878 29.2807C147.477 28.5202 147.798 27.5772 147.787 26.6089C147.718 25.6249 147.359 24.6835 146.754 23.9047C145.949 22.8486 144.983 21.9252 143.892 21.1681C142.837 20.3613 141.662 19.7244 140.409 19.2804C139.467 18.9329 138.442 18.8764 137.467 19.1182C136.539 19.398 135.737 19.9904 135.196 20.7948C134.586 21.5615 134.268 22.5198 134.298 23.4991C134.383 24.4876 134.76 25.4286 135.38 26.2033C136.193 27.2439 137.16 28.1555 138.246 28.9075ZM137.986 22.8068C138.272 22.3813 138.703 22.0739 139.198 21.9414C139.722 21.8239 140.269 21.8539 140.777 22.028C141.422 22.2411 142.026 22.559 142.567 22.969C143.131 23.3596 143.626 23.8402 144.033 24.3915C144.355 24.8136 144.543 25.322 144.574 25.8517C144.584 26.3598 144.42 26.8559 144.109 27.2579C143.823 27.6785 143.398 27.985 142.908 28.1233C142.392 28.2478 141.852 28.2215 141.35 28.0476C140.708 27.831 140.105 27.5113 139.566 27.1011C139.004 26.709 138.509 26.2287 138.1 25.6787C137.781 25.2509 137.593 24.7399 137.559 24.2076C137.539 23.7125 137.69 23.2256 137.986 22.8284V22.8068Z" fill="black"/>
<path d="M151.335 27.607L145.066 34.1992L147.512 36.5249L153.781 29.9327L151.335 27.607Z" fill="black"/>
<path d="M154.255 24.3189L152.578 26.0825L155.251 28.6243L156.928 26.8607L154.255 24.3189Z" fill="black"/>
<path d="M155.672 37.3286C156.206 37.4552 156.72 37.6573 157.197 37.929C157.781 38.266 158.304 38.6993 158.744 39.2108L160.934 37.2853C160.587 36.8809 160.16 36.5531 159.68 36.3226C159.245 36.1232 158.781 35.9971 158.306 35.9494C157.866 35.9072 157.423 35.9199 156.986 35.9873C156.617 36.0487 156.254 36.1465 155.904 36.2794L155.775 36.3334L158.025 34.354L155.791 31.8174L148.96 37.8316L151.194 40.3628L154.736 37.2475C155.05 37.2306 155.365 37.258 155.672 37.3286Z" fill="black"/>
<path d="M171.608 46.9991L160.394 53.1514L162.017 56.1102L173.231 49.9579L171.608 46.9991Z" fill="black"/>
<path d="M170.025 55.5115C169.09 55.2154 168.079 55.2691 167.181 55.6629C166.246 55.9851 165.463 56.6395 164.979 57.5018C164.524 58.4266 164.347 59.4638 164.471 60.4872C164.608 61.8064 164.932 63.0993 165.434 64.3272C165.834 65.4284 166.394 66.4652 167.094 67.4047C167.585 68.0729 168.234 68.6097 168.982 68.9677C169.599 69.2466 170.29 69.3168 170.95 69.1678L169.755 66.1066C169.52 66.0721 169.294 65.9894 169.092 65.8638C168.89 65.7382 168.716 65.5723 168.581 65.3765C168.103 64.7828 167.727 64.1139 167.467 63.397C167.192 62.7434 167.026 62.0491 166.975 61.3417C166.938 60.8416 167.031 60.3404 167.245 59.8869C167.431 59.5184 167.718 59.2106 168.073 58.9999L171.918 68.8487C172.919 68.5477 173.808 67.959 174.477 67.1558C175.03 66.3893 175.299 65.4544 175.239 64.5111C175.155 63.2343 174.859 61.9804 174.363 60.8009C173.9 59.5455 173.249 58.3675 172.432 57.3071C171.817 56.4921 170.982 55.8693 170.025 55.5115ZM172.681 63.9865C172.668 64.2488 172.591 64.504 172.457 64.7301C172.323 64.9562 172.137 65.1465 171.913 65.2845L169.322 58.6483C169.882 58.6716 170.412 58.9031 170.81 59.2974C171.447 59.8927 171.928 60.6357 172.21 61.4608C172.577 62.2498 172.739 63.1184 172.681 63.9865Z" fill="black"/>
<path d="M166.932 85.1173L173.574 84.8036L173.363 84.8955C172.793 85.1819 172.288 85.5833 171.881 86.0745C171.433 86.6202 171.102 87.2515 170.907 87.9297C170.672 88.7533 170.58 89.6115 170.637 90.4663C170.67 91.4885 170.905 92.4941 171.329 93.4247C171.702 94.2487 172.302 94.9487 173.06 95.442C173.845 95.9303 174.766 96.1557 175.688 96.0856C176.596 96.0647 177.474 95.7539 178.193 95.1987C178.901 94.6337 179.442 93.8856 179.756 93.0353C180.117 92.0742 180.27 91.0474 180.205 90.0227C180.179 89.1664 180.019 88.3193 179.729 87.5132C179.492 86.8564 179.124 86.2546 178.647 85.7446C178.209 85.2903 177.675 84.9393 177.084 84.7171L176.862 84.6468L179.712 84.3547L179.561 81.1475L166.786 81.7478L166.932 85.1173ZM177.484 86.7831C177.699 87.4852 177.821 88.2126 177.846 88.9465C177.952 89.8822 177.763 90.8275 177.306 91.6507C177.119 91.9571 176.859 92.2112 176.547 92.3891C176.236 92.5669 175.885 92.6627 175.526 92.6675C175.049 92.7034 174.575 92.5713 174.185 92.2943C173.782 91.9859 173.471 91.5723 173.287 91.099C173.051 90.495 172.921 89.8545 172.903 89.2061C172.859 88.4627 172.915 87.7169 173.071 86.9886C173.177 86.4044 173.435 85.8582 173.817 85.4039C173.985 85.2135 174.19 85.0596 174.42 84.9517C174.65 84.8437 174.899 84.7842 175.153 84.7766C175.418 84.7579 175.685 84.7965 175.934 84.8898C176.183 84.9831 176.409 85.129 176.597 85.3174C177.007 85.7269 177.312 86.2299 177.484 86.7831Z" fill="black"/>
<path d="M170.459 100.829L175.154 101.326C175.381 101.552 175.577 101.806 175.738 102.084C176.007 102.561 176.205 103.075 176.327 103.609C176.475 104.267 176.51 104.945 176.43 105.615L179.329 105.924C179.395 105.395 179.347 104.858 179.188 104.35C179.045 103.893 178.824 103.465 178.534 103.084C178.271 102.731 177.962 102.414 177.614 102.143C177.317 101.907 176.996 101.702 176.657 101.532L176.527 101.467L179.507 101.786L179.859 98.4275L170.811 97.4702L170.459 100.829Z" fill="black"/>
<path d="M167.603 116.438C167.624 117.424 167.936 118.382 168.5 119.191C169.102 119.951 169.949 120.478 170.896 120.684C171.825 120.963 172.821 120.917 173.72 120.554C174.618 120.131 175.371 119.452 175.883 118.601C176.571 117.465 177.076 116.227 177.381 114.934C177.746 113.657 177.91 112.33 177.868 111.002C177.847 110 177.527 109.026 176.948 108.206C176.35 107.443 175.505 106.911 174.558 106.703C173.629 106.418 172.63 106.467 171.735 106.843C170.829 107.276 170.075 107.972 169.571 108.839C168.886 109.978 168.382 111.217 168.079 112.511C167.717 113.788 167.556 115.112 167.603 116.438ZM170.253 113.074C170.414 112.408 170.681 111.773 171.042 111.192C171.314 110.724 171.719 110.348 172.205 110.11C172.67 109.908 173.19 109.876 173.676 110.018C174.176 110.132 174.618 110.42 174.926 110.829C175.224 111.276 175.394 111.796 175.418 112.333C175.457 113.011 175.384 113.691 175.201 114.345C175.042 115.011 174.775 115.646 174.412 116.227C174.135 116.681 173.728 117.041 173.244 117.26C172.775 117.456 172.254 117.485 171.767 117.341C171.271 117.229 170.831 116.945 170.523 116.541C170.222 116.105 170.049 115.593 170.026 115.064C169.991 114.393 170.064 113.721 170.242 113.074H170.253Z" fill="black"/>
<path d="M175.994 124.843L174.6 128.257L176.853 129.178L178.248 125.763L175.994 124.843Z" fill="black"/>
<path d="M162.308 119.384L161.031 122.508L172.872 127.345L174.149 124.221L162.308 119.384Z" fill="black"/>
<path d="M168.02 127.676C167.179 127.154 166.176 126.962 165.202 127.135C164.198 127.366 163.283 127.882 162.568 128.623C161.625 129.558 160.823 130.626 160.188 131.792C159.583 132.802 159.129 133.895 158.842 135.037C158.639 135.841 158.639 136.683 158.842 137.487C159.013 138.142 159.392 138.723 159.923 139.142L161.546 136.292C161.424 136.087 161.346 135.86 161.315 135.623C161.284 135.387 161.302 135.147 161.367 134.918C161.531 134.172 161.816 133.457 162.211 132.804C162.545 132.179 162.978 131.613 163.493 131.127C163.858 130.782 164.308 130.539 164.796 130.424C165.198 130.336 165.616 130.364 166.002 130.505L160.772 139.699C161.636 140.287 162.654 140.609 163.698 140.624C164.643 140.567 165.539 140.185 166.235 139.543C167.176 138.675 167.964 137.654 168.566 136.525C169.253 135.376 169.758 134.128 170.064 132.825C170.312 131.836 170.271 130.796 169.945 129.829C169.59 128.899 168.905 128.132 168.02 127.676ZM166.662 135.248C166.288 136.018 165.731 136.685 165.04 137.19C164.827 137.344 164.58 137.444 164.32 137.482C164.06 137.52 163.795 137.494 163.547 137.406L167.068 131.219C167.404 131.667 167.561 132.224 167.506 132.782C167.433 133.661 167.143 134.508 166.662 135.248Z" fill="black"/>
<path d="M163.817 143.599L162.021 142.177L160.307 144.351L154.963 140.127L152.87 142.777L158.214 147.001L156.494 149.17L158.289 150.592L160.004 148.418L162.092 150.068L164.185 147.418L162.102 145.768L163.817 143.599Z" fill="black"/>
<path d="M134.844 158.862L136.553 172.107L139.728 169.916L138.04 159.375L147.299 164.676L150.517 162.453L138.684 156.206L134.844 158.862Z" fill="black"/>
<path d="M130.604 163.783C129.701 163.358 128.692 163.209 127.705 163.356C126.393 163.536 125.116 163.915 123.919 164.481C122.695 164.993 121.557 165.69 120.544 166.547C119.787 167.18 119.236 168.023 118.959 168.97C118.74 169.915 118.855 170.907 119.284 171.777C119.647 172.675 120.305 173.423 121.15 173.897C122.039 174.335 123.039 174.497 124.022 174.362C125.335 174.193 126.612 173.817 127.808 173.248C129.036 172.736 130.176 172.036 131.188 171.171C131.962 170.528 132.526 169.67 132.81 168.705C133.031 167.76 132.916 166.768 132.486 165.898C132.126 164.994 131.46 164.245 130.604 163.783ZM129.463 168.786C129.3 169.298 129.001 169.757 128.597 170.111C128.091 170.564 127.514 170.929 126.888 171.193C126.267 171.477 125.604 171.66 124.925 171.734C124.399 171.795 123.867 171.701 123.394 171.463C122.953 171.223 122.605 170.842 122.405 170.382C122.187 169.923 122.136 169.403 122.259 168.91C122.406 168.401 122.697 167.945 123.097 167.596C123.607 167.146 124.186 166.781 124.811 166.515C125.433 166.232 126.096 166.05 126.775 165.974C127.305 165.901 127.846 165.988 128.327 166.222C128.775 166.456 129.127 166.838 129.322 167.304C129.543 167.766 129.593 168.291 129.463 168.786Z" fill="black"/>
<path d="M115.973 167.802L112.735 168.756L115.305 177.482L118.543 176.529L115.973 167.802Z" fill="black"/>
<path d="M119.146 178.358L115.607 179.399L116.295 181.734L119.833 180.693L119.146 178.358Z" fill="black"/>
<path d="M107.504 169.938L108.424 174.573C108.28 174.857 108.098 175.119 107.883 175.352C107.508 175.752 107.076 176.095 106.601 176.369C106.018 176.706 105.381 176.942 104.719 177.066L105.287 179.922C105.811 179.829 106.309 179.625 106.747 179.322C107.139 179.049 107.481 178.711 107.758 178.321C108.017 177.964 108.228 177.575 108.386 177.164C108.521 176.814 108.623 176.451 108.689 176.082C108.689 176.028 108.689 175.99 108.689 175.941L109.273 178.878L112.588 178.224L110.809 169.3L107.504 169.938Z" fill="black"/>
<path d="M88.4621 171.425L88.1719 184.212L91.5459 184.289L91.8361 171.501L88.4621 171.425Z" fill="black"/>
<path d="M83.4424 171.361C82.2391 170.819 80.964 170.455 79.6564 170.279C78.5013 170.074 77.3223 170.039 76.1572 170.176C75.334 170.268 74.5463 170.561 73.864 171.031C73.3121 171.431 72.9057 172.001 72.7066 172.653L75.9516 173.145C76.101 172.96 76.2862 172.806 76.4962 172.694C76.7062 172.581 76.9367 172.512 77.174 172.491C77.9275 172.373 78.6957 172.384 79.4455 172.523C80.1498 172.608 80.8351 172.809 81.4737 173.118C81.9264 173.335 82.3143 173.667 82.5986 174.081C82.823 174.426 82.9466 174.827 82.9556 175.239L72.5011 173.648C72.261 174.665 72.3249 175.729 72.685 176.71C73.0743 177.572 73.7511 178.271 74.5995 178.689C75.7457 179.256 76.9805 179.622 78.2502 179.771C79.5691 179.999 80.9151 180.024 82.2417 179.846C83.255 179.718 84.2114 179.306 85 178.657C85.7244 177.997 86.1822 177.094 86.2872 176.12C86.4786 175.149 86.3033 174.141 85.795 173.291C85.2155 172.433 84.3978 171.762 83.4424 171.361ZM81.279 177.445C80.4372 177.701 79.5453 177.744 78.6829 177.57C77.8256 177.489 77.001 177.199 76.2816 176.726C76.0609 176.583 75.8781 176.389 75.7491 176.16C75.62 175.931 75.5485 175.674 75.5406 175.412L82.5716 176.493C82.2805 176.955 81.8302 177.294 81.306 177.445H81.279Z" fill="black"/>
<path d="M57.8326 167.104C57.8326 167.029 57.8326 166.953 57.8596 166.877C57.8968 166.241 57.8011 165.603 57.5784 165.006C57.331 164.344 56.9499 163.74 56.4588 163.232C55.8637 162.617 55.1665 162.11 54.3982 161.734C53.4974 161.247 52.5078 160.947 51.4885 160.852C50.5908 160.76 49.6856 160.929 48.8816 161.339C48.0652 161.773 47.4094 162.457 47.0103 163.291C46.5716 164.087 46.3991 165.003 46.5181 165.904C46.6535 166.799 47.0271 167.641 47.5998 168.343C48.2517 169.137 49.0647 169.784 49.9849 170.241C50.7399 170.646 51.554 170.929 52.3971 171.079C53.0858 171.204 53.7927 171.186 54.474 171.025C55.0872 170.873 55.6584 170.585 56.1451 170.182C56.2046 170.133 56.2587 170.079 56.3128 170.025L55.1446 172.637L58.0002 174.114L63.8738 162.756L60.8722 161.204L57.8326 167.104ZM55.9288 169.5C55.3506 169.65 54.7439 169.65 54.1657 169.5C53.456 169.335 52.7706 169.079 52.1267 168.738C51.2747 168.362 50.5604 167.73 50.0823 166.931C49.908 166.618 49.8166 166.265 49.8166 165.906C49.8166 165.548 49.908 165.195 50.0823 164.881C50.2878 164.451 50.6381 164.106 51.072 163.908C51.5401 163.713 52.053 163.651 52.554 163.729C53.196 163.825 53.8165 164.032 54.3874 164.341C55.0535 164.675 55.6719 165.097 56.2263 165.595C56.6768 165.982 57.0212 166.477 57.2268 167.034C57.3077 167.275 57.338 167.53 57.3156 167.783C57.2933 168.036 57.2189 168.282 57.097 168.505C56.984 168.744 56.8214 168.957 56.62 169.128C56.4186 169.3 56.183 169.427 55.9288 169.5Z" fill="black"/>
<path d="M45.5289 156.379L42.7436 160.165C42.436 160.253 42.117 160.295 41.7971 160.29C41.2468 160.285 40.7001 160.199 40.1746 160.035C39.5311 159.834 38.9273 159.523 38.3898 159.116L36.6699 161.474C37.0929 161.795 37.5797 162.022 38.0977 162.139C38.566 162.246 39.0492 162.269 39.5256 162.21C39.9631 162.156 40.392 162.047 40.802 161.885C41.1553 161.741 41.4925 161.559 41.8079 161.344L41.9269 161.258L40.1583 163.681L42.8626 165.671L48.2278 158.326L45.5289 156.379Z" fill="black"/>
<path d="M39.6821 154.454C39.7534 153.458 39.5256 152.463 39.0277 151.598C38.3829 150.436 37.5639 149.38 36.5993 148.467C35.6786 147.511 34.6148 146.704 33.4461 146.076C32.5815 145.6 31.5954 145.392 30.6121 145.476C29.6529 145.616 28.7719 146.084 28.1188 146.801C27.4116 147.462 26.9534 148.346 26.8208 149.305C26.7337 150.295 26.9467 151.288 27.432 152.155C28.0658 153.32 28.8799 154.377 29.8441 155.287C30.7703 156.243 31.8396 157.049 33.0135 157.677C33.8904 158.162 34.8927 158.373 35.8908 158.283C36.8515 158.146 37.7347 157.679 38.3895 156.963C39.1023 156.305 39.56 155.416 39.6821 154.454ZM36.5939 153.215C36.538 153.72 36.3064 154.189 35.9394 154.54C35.5893 154.914 35.1179 155.152 34.6089 155.211C34.0731 155.25 33.5372 155.137 33.0621 154.886C32.4592 154.578 31.911 154.172 31.4396 153.686C30.9434 153.215 30.527 152.667 30.2065 152.063C29.9541 151.597 29.8467 151.066 29.8982 150.538C29.9644 150.034 30.2011 149.569 30.5688 149.218C30.914 148.846 31.3792 148.606 31.8831 148.542C32.4123 148.496 32.9435 148.603 33.4137 148.851C34.0173 149.16 34.5655 149.568 35.0362 150.057C35.5339 150.527 35.9521 151.075 36.2748 151.679C36.5306 152.148 36.6416 152.683 36.5939 153.215Z" fill="black"/>
<path d="M19.706 146.209L17.7832 147.701L20.0444 150.615L21.9673 149.123L19.706 146.209Z" fill="black"/>
<path d="M31.4668 137.281L21.3613 145.123L23.4303 147.789L33.5358 139.947L31.4668 137.281Z" fill="black"/>
<path d="M20.7145 141.425C21.6851 141.571 22.6755 141.357 23.4998 140.825C24.3736 140.36 25.0456 139.59 25.3874 138.661C25.6879 137.677 25.6972 136.627 25.4144 135.638C25.0716 134.356 24.5452 133.13 23.8514 131.998C23.2829 130.974 22.5688 130.037 21.7312 129.218C21.1395 128.637 20.413 128.211 19.6166 127.98C18.964 127.799 18.27 127.839 17.6425 128.093L19.3083 130.922C19.5468 130.919 19.7832 130.966 20.0028 131.059C20.2224 131.152 20.4205 131.29 20.5847 131.463C21.1497 131.974 21.6267 132.575 21.9963 133.242C22.37 133.845 22.6439 134.504 22.8076 135.194C22.9248 135.683 22.9118 136.194 22.7697 136.676C22.6455 137.068 22.4108 137.416 22.0936 137.677L16.7393 128.564C15.7973 129.018 15.0107 129.74 14.4785 130.641C14.0614 131.477 13.9449 132.432 14.1486 133.345C14.4296 134.593 14.9197 135.786 15.5981 136.871C16.2523 138.039 17.0823 139.098 18.0589 140.013C18.7914 140.728 19.7128 141.217 20.7145 141.425ZM16.7555 133.475C16.7252 133.214 16.7586 132.95 16.8528 132.705C16.947 132.46 17.0992 132.242 17.2963 132.068L20.9038 138.212C20.3477 138.278 19.7871 138.135 19.3299 137.812C18.604 137.317 18.0115 136.65 17.6046 135.871C17.127 135.155 16.8352 134.331 16.7555 133.475Z" fill="black"/>
<path d="M19.2271 123.295L17.9778 120.159L11.6499 122.679L10.6277 120.104L8.49679 120.948L9.52439 123.523L7.05273 124.507L8.30209 127.644L10.7737 126.66L11.7959 129.234L13.9215 128.385L12.8993 125.816L19.2271 123.295Z" fill="black"/>
<path d="M13.0943 96.502L0.779297 91.3315L1.08758 95.1715L11.0445 99.0061L1.81231 104.355L2.12059 108.255L13.4621 101.153L13.0943 96.502Z" fill="black"/>
<path d="M4.27319 87.1888C4.4451 88.1763 4.90846 89.0898 5.60368 89.8118C6.31056 90.4768 7.22604 90.8763 8.19431 90.9422C9.1522 91.0915 10.1321 90.9001 10.9634 90.4014C11.7839 89.8349 12.4167 89.0364 12.7807 88.1082C13.2816 86.8767 13.5934 85.5766 13.7055 84.2519C13.876 82.9367 13.8413 81.603 13.6028 80.2984C13.4323 79.326 12.9768 78.4262 12.2939 77.7132C11.587 77.0498 10.6708 76.6539 9.70326 76.5936C8.74554 76.4525 7.76838 76.6434 6.93413 77.1345C6.10923 77.6852 5.46865 78.4709 5.09528 79.3898C4.58392 80.6146 4.26816 81.9123 4.1596 83.2352C3.99663 84.5511 4.03494 85.8843 4.27319 87.1888ZM6.3987 83.4569C6.45785 82.7748 6.62582 82.1065 6.89627 81.4774C7.10379 80.9901 7.44983 80.5745 7.89144 80.2822C8.32922 80.0224 8.84171 79.9177 9.34631 79.9847C9.85166 80.021 10.3283 80.2334 10.693 80.5851C11.0579 80.97 11.3071 81.4498 11.4123 81.9696C11.5442 82.6356 11.5697 83.3183 11.488 83.9924C11.4287 84.6745 11.2607 85.3428 10.9905 85.9719C10.7873 86.4674 10.4431 86.8924 10.0007 87.1942C9.5711 87.465 9.05992 87.576 8.55667 87.5078C8.0454 87.4697 7.5643 87.2512 7.19914 86.8913C6.83562 86.4955 6.58854 86.007 6.48522 85.4797C6.34657 84.8128 6.31735 84.1278 6.3987 83.4515V83.4569Z" fill="black"/>
<path d="M2.54718 69.0341L1.68359 72.6201L4.04975 73.1899L4.91333 69.6039L2.54718 69.0341Z" fill="black"/>
<path d="M6.74286 70.2723L5.95215 73.5532L14.796 75.6846L15.5867 72.4037L6.74286 70.2723Z" fill="black"/>
<path d="M17.1505 67.3129L12.6777 65.7985C12.5074 65.5286 12.3729 65.2377 12.2775 64.9332C12.1158 64.4075 12.0338 63.8606 12.0341 63.3107C12.0321 62.6361 12.1473 61.9663 12.3748 61.3312L9.61109 60.3955C9.43291 60.898 9.36287 61.4325 9.40557 61.964C9.4453 62.4413 9.56792 62.908 9.76792 63.3432C9.94848 63.7451 10.1813 64.1215 10.4602 64.4627C10.696 64.7586 10.9625 65.0288 11.2552 65.2685L11.3742 65.3551L8.53481 64.3978L7.45312 67.5942L16.0742 70.5093L17.1505 67.3129Z" fill="black"/>
<path d="M14.5069 43.3886L12.749 46.2695L23.6679 52.9319L25.4258 50.0509L14.5069 43.3886Z" fill="black"/>
<path d="M22.4404 45.8091C23.1893 46.4604 24.1521 46.8127 25.1446 46.7988C26.1706 46.7334 27.1553 46.3707 27.9786 45.755C29.0565 44.9796 30.0165 44.0524 30.8289 43.0021C31.5848 42.1054 32.2061 41.1033 32.6732 40.0275C33.0069 39.2696 33.1481 38.4409 33.0842 37.6153C33.019 36.9389 32.734 36.3025 32.2729 35.8034L30.2177 38.367C30.3056 38.5885 30.3471 38.8257 30.3397 39.0638C30.3322 39.302 30.276 39.5361 30.1745 39.7516C29.8981 40.4637 29.503 41.1239 29.0062 41.7041C28.5789 42.2693 28.0618 42.7608 27.4756 43.1589C27.0597 43.4417 26.5765 43.6096 26.0748 43.6457C25.6641 43.6695 25.2551 43.5757 24.8958 43.3753L31.5157 35.1274C30.7556 34.4114 29.8023 33.9338 28.7737 33.7536C27.8337 33.66 26.8902 33.8931 26.1019 34.4135C25.035 35.1197 24.0951 36.001 23.3219 37.0203C22.4638 38.0483 21.7672 39.2009 21.2559 40.4385C20.855 41.3775 20.7311 42.4115 20.899 43.4185C21.1069 44.3755 21.6545 45.2247 22.4404 45.8091ZM23.7817 40.8495C23.9854 39.9941 24.3979 39.2026 24.9823 38.5456C25.482 37.8432 26.147 37.2748 26.9186 36.8906C27.152 36.7674 27.4119 36.7031 27.6758 36.7031C27.9396 36.7031 28.1995 36.7674 28.4329 36.8906L23.971 42.4505C23.7147 41.9578 23.6474 41.3884 23.7817 40.8495Z" fill="black"/>
<path d="M48.0757 31.3034L44.4791 25.711L44.6684 25.8516C45.1999 26.2009 45.7987 26.4349 46.4261 26.5385C47.1243 26.6514 47.8381 26.6219 48.5246 26.4519C49.3532 26.2431 50.1398 25.8937 50.8503 25.419C51.7199 24.8761 52.4735 24.1666 53.0677 23.3313C53.5947 22.5983 53.899 21.7288 53.9439 20.8272C53.9753 19.9032 53.71 18.9933 53.1867 18.2311C52.7131 17.4555 52.0045 16.8512 51.164 16.5058C50.3171 16.179 49.3976 16.0874 48.503 16.2408C47.4895 16.4084 46.5234 16.7901 45.669 17.3604C44.9412 17.812 44.2895 18.376 43.7381 19.0316C43.2881 19.567 42.9531 20.1892 42.7538 20.8596C42.5773 21.4655 42.5422 22.1039 42.6511 22.7256C42.6511 22.8013 42.6835 22.877 42.6997 22.9527L41.0177 20.6378L38.3135 22.374L45.2309 33.1314L48.0757 31.3034ZM43.3542 22.8661C43.5132 22.2905 43.8145 21.7642 44.2303 21.3356C44.7291 20.8057 45.2923 20.3406 45.9069 19.951C46.6598 19.3995 47.5645 19.0936 48.4976 19.0749C48.8556 19.0836 49.2056 19.183 49.5149 19.3636C49.8241 19.5443 50.0826 19.8003 50.2661 20.1078C50.5376 20.5016 50.6621 20.9783 50.6177 21.4545C50.5516 21.9571 50.3496 22.4321 50.0336 22.8283C49.6283 23.3363 49.1379 23.77 48.5841 24.1101C47.9631 24.5204 47.2901 24.846 46.583 25.0782C46.0231 25.277 45.4212 25.3273 44.8361 25.2243C44.5869 25.1747 44.3507 25.0741 44.1422 24.9289C43.9337 24.7837 43.7575 24.597 43.6246 24.3805C43.4732 24.1624 43.3706 23.9143 43.3239 23.6529C43.2772 23.3915 43.2876 23.1231 43.3542 22.8661Z" fill="black"/>
<path d="M59.9102 20.3944L57.9956 16.0677C58.0767 15.7582 58.2005 15.4615 58.3634 15.1861C58.6411 14.7123 58.9874 14.2822 59.391 13.9097C59.8882 13.4563 60.4588 13.0905 61.0784 12.828L59.8994 10.1616C59.4087 10.3718 58.9668 10.6812 58.6014 11.0703C58.2788 11.4238 58.019 11.8298 57.8333 12.2709C57.6611 12.6759 57.5411 13.1012 57.4764 13.5365C57.4196 13.9122 57.4015 14.2929 57.4223 14.6723C57.4223 14.7264 57.4223 14.7642 57.4223 14.8183L56.2054 12.0762L53.1172 13.4446L56.8058 21.7628L59.9102 20.3944Z" fill="black"/>
<path d="M76.8109 12.9361C77.1691 12.0347 77.2035 11.0369 76.9083 10.1129C76.6908 9.17124 76.1561 8.33294 75.3939 7.73863C74.5794 7.16856 73.6134 6.85415 72.6194 6.83546C71.2923 6.81224 69.9696 6.99469 68.6983 7.37631C67.408 7.70028 66.1749 8.22011 65.0422 8.9177C64.1894 9.43023 63.5065 10.1827 63.0789 11.0811C62.7181 11.9815 62.6799 12.9789 62.9707 13.9043C63.1848 14.8516 63.7246 15.6938 64.4959 16.284C65.3248 16.84 66.2993 17.1391 67.2975 17.1439C68.6263 17.1657 69.9506 16.9833 71.224 16.6031C72.5108 16.284 73.7404 15.7677 74.8693 15.0725C75.7126 14.5669 76.388 13.8238 76.8109 12.9361ZM73.5226 12.4927C73.2993 12.9726 72.9425 13.3782 72.495 13.6609C71.9235 14.0302 71.2948 14.3025 70.6345 14.4668C69.9783 14.6595 69.2953 14.7453 68.6117 14.721C68.0762 14.7094 67.5556 14.5421 67.1136 14.2396C66.705 13.9373 66.4158 13.5007 66.2969 13.0065C66.1462 12.5182 66.177 11.9919 66.3834 11.5245C66.6164 11.0397 66.9821 10.6309 67.4381 10.3455C68.0071 9.97395 68.634 9.69977 69.2932 9.53427C69.9491 9.34011 70.6324 9.2542 71.316 9.28003C71.8471 9.29319 72.3617 9.46666 72.7925 9.77763C73.1935 10.0874 73.4776 10.524 73.5983 11.0162C73.7473 11.502 73.7204 12.0247 73.5226 12.4927Z" fill="black"/>
<path d="M81.7235 5.07583L78.3789 5.52686L80.0883 18.2031L83.4329 17.7521L81.7235 5.07583Z" fill="black"/>
<path d="M81.3147 0.712137L77.6592 1.20508L77.9844 3.61705L81.6399 3.12411L81.3147 0.712137Z" fill="black"/>
<path d="M97.715 6.37068C97.1848 5.59054 96.4015 5.0174 95.4975 4.74814C94.2717 4.37637 92.9912 4.21723 91.7116 4.27761C90.3731 4.27023 89.0414 4.46911 87.7635 4.86718C86.7851 5.1551 85.9102 5.71833 85.2431 6.48971C84.64 7.25778 84.3363 8.21876 84.3886 9.19394C84.3662 10.1821 84.7067 11.1442 85.3459 11.8982C86.0533 12.646 86.9627 13.172 87.9636 13.4125C89.2486 13.7447 90.5743 13.8922 91.9009 13.8506C93.0738 13.8602 94.2418 13.698 95.3677 13.3692C96.1647 13.1406 96.8929 12.7189 97.4878 12.1415C97.9662 11.662 98.274 11.0388 98.364 10.3675L95.0757 10.4217C94.9625 10.6292 94.8082 10.8115 94.6222 10.9575C94.4362 11.1035 94.2225 11.2101 93.994 11.2708C93.2706 11.5113 92.5118 11.6283 91.7495 11.6169C91.0411 11.6492 90.3322 11.5652 89.651 11.3681C89.1678 11.2268 88.7298 10.9621 88.38 10.6001C88.0988 10.2995 87.9109 9.92376 87.8392 9.51843L98.4127 9.34532C98.4737 8.30708 98.2313 7.27353 97.715 6.37068ZM87.9419 8.23122C88.1582 7.71521 88.5594 7.29856 89.0669 7.06297C89.855 6.6767 90.7263 6.49092 91.6034 6.52213C92.4627 6.45939 93.3243 6.60797 94.113 6.95483C94.3549 7.05855 94.5681 7.21957 94.7339 7.42404C94.8997 7.62851 95.0133 7.87025 95.0649 8.12842L87.9419 8.23122Z" fill="black"/>
<path d="M105.07 14.6887L106.049 7.94436L108.786 8.34458L109.116 6.07844L106.374 5.68363L106.758 3.04971L103.415 2.56836L103.031 5.19687L100.295 4.80205L99.9648 7.06278L102.707 7.46301L101.728 14.2019L105.07 14.6887Z" fill="black"/>
</svg>
