<svg width="54" height="54" viewBox="0 0 54 54" fill="none" xmlns="http://www.w3.org/2000/svg">
<path opacity="0.3" d="M0.999999 27.1827C0.999998 26.1837 1.60612 25.1525 2.88476 24.1427C4.15783 23.1373 6.03068 22.21 8.38965 21.422C13.1029 19.8476 19.6462 18.8644 26.8965 18.8644C34.1467 18.8644 40.69 19.8476 45.4033 21.422C47.7626 22.2101 49.6361 23.1372 50.9092 24.1427C52.1878 25.1525 52.7939 26.1837 52.7939 27.1827C52.7938 28.1817 52.1877 29.213 50.9092 30.2228C49.6361 31.2282 47.7624 32.1554 45.4033 32.9435C40.69 34.5178 34.1467 35.5001 26.8965 35.5001C19.6462 35.5001 13.1029 34.5179 8.38965 32.9435C6.03077 32.1555 4.15786 31.2281 2.88476 30.2228C1.60623 29.213 1.00011 28.1817 0.999999 27.1827Z" stroke="#2367F9"/>
<path d="M8.58448 8.8708C9.29092 8.16436 10.4486 7.86381 12.0668 8.0539C13.6779 8.2432 15.658 8.91178 17.8832 10.0226C22.3293 12.2421 27.6513 16.1737 32.778 21.3004C37.9047 26.4271 41.8363 31.7492 44.0558 36.1952C45.1668 38.4207 45.836 40.4011 46.0252 42.0123C46.2153 43.6305 45.9148 44.7882 45.2083 45.4947C44.5019 46.201 43.344 46.5016 41.726 46.3116C40.1148 46.1222 38.1342 45.453 35.9089 44.3422C31.4629 42.1226 26.1414 38.1903 21.0148 33.0637C15.8881 27.9369 11.9558 22.6156 9.73629 18.1695C8.62549 15.9444 7.95694 13.9642 7.76758 12.3532C7.57751 10.7351 7.87817 9.57725 8.58448 8.8708Z" stroke="#3374FF"/>
<path opacity="0.3" d="M8.58552 45.4944C7.87908 44.7879 7.57854 43.6302 7.76862 42.012C7.95792 40.4009 8.6265 38.4209 9.73733 36.1956C11.9568 31.7496 15.8884 26.4276 21.0151 21.3008C26.1418 16.1741 31.4639 12.2426 35.91 10.023C38.1354 8.91206 40.1158 8.2429 41.727 8.05363C43.3452 7.86355 44.5029 8.1641 45.2094 8.87054C45.9157 9.57699 46.2163 10.7348 46.0263 12.3529C45.837 13.964 45.1678 15.9446 44.0569 18.17C41.8373 22.616 37.905 27.9374 32.7784 33.0641C27.6516 38.1908 22.3303 42.1231 17.8843 44.3426C15.6591 45.4534 13.6789 46.1219 12.0679 46.3113C10.4498 46.5013 9.29198 46.2007 8.58552 45.4944Z" stroke="#2367F9"/>
<path opacity="0.3" d="M26.8975 53.0791C25.8984 53.0791 24.8673 52.473 23.8574 51.1943C22.8521 49.9213 21.9247 48.0484 21.1367 45.6895C19.5623 40.9762 18.5791 34.4329 18.5791 27.1826C18.5791 19.9324 19.5623 13.3891 21.1367 8.67578C21.9248 6.31654 22.852 4.44305 23.8574 3.16992C24.8673 1.89128 25.8984 1.28516 26.8975 1.28516C27.8964 1.28526 28.9278 1.89139 29.9375 3.16992C30.9429 4.44304 31.8702 6.3167 32.6582 8.67578C34.2326 13.3891 35.2148 19.9324 35.2148 27.1826C35.2148 34.4329 34.2326 40.9762 32.6582 45.6895C31.8702 48.0483 30.9428 49.9212 29.9375 51.1943C28.9278 52.4729 27.8964 53.079 26.8975 53.0791Z" stroke="#2367F9"/>
</svg>
