<svg width="54" height="54" viewBox="0 0 54 54" fill="none" xmlns="http://www.w3.org/2000/svg">
<g clip-path="url(#clip0_2185_1260)">
<path opacity="0.3" d="M1.10351 35.4532C1.10351 34.4542 1.70964 33.423 2.98828 32.4132C4.26135 31.4079 6.1342 30.4805 8.49316 29.6925C13.2064 28.1181 19.7497 27.1349 27 27.1349C34.2503 27.1349 40.7935 28.1181 45.5068 29.6925C47.8661 30.4806 49.7396 31.4077 51.0127 32.4132C52.2913 33.423 52.8975 34.4542 52.8975 35.4532C52.8974 36.4522 52.2912 37.4835 51.0127 38.4933C49.7396 39.4987 47.8659 40.426 45.5068 41.214C40.7936 42.7884 34.2502 43.7706 27 43.7706C19.7497 43.7706 13.2064 42.7884 8.49316 41.214C6.13428 40.426 4.26138 39.4986 2.98828 38.4933C1.70975 37.4835 1.10362 36.4522 1.10351 35.4532Z" stroke="#2367F9"/>
<path d="M1.10351 29.8179C1.10351 28.8188 1.70964 27.7877 2.98828 26.7778C4.26135 25.7725 6.1342 24.8451 8.49316 24.0571C13.2064 22.4827 19.7497 21.4995 27 21.4995C34.2503 21.4995 40.7935 22.4827 45.5068 24.0571C47.8661 24.8452 49.7396 25.7724 51.0127 26.7778C52.2913 27.7877 52.8975 28.8188 52.8975 29.8179C52.8974 30.8168 52.2912 31.8482 51.0127 32.8579C49.7396 33.8633 47.8659 34.7906 45.5068 35.5786C40.7936 37.153 34.2502 38.1353 27 38.1353C19.7497 38.1352 13.2064 37.153 8.49316 35.5786C6.13428 34.7906 4.26138 33.8632 2.98828 32.8579C1.70975 31.8482 1.10362 30.8168 1.10351 29.8179Z" stroke="#3374FF"/>
<path opacity="0.3" d="M1.10351 24.1826C1.10351 23.1836 1.70964 22.1524 2.98828 21.1426C4.26135 20.1372 6.1342 19.2099 8.49316 18.4219C13.2064 16.8474 19.7497 15.8643 27 15.8643C34.2503 15.8643 40.7935 16.8475 45.5068 18.4219C47.8661 19.21 49.7396 20.1371 51.0127 21.1426C52.2913 22.1524 52.8975 23.1836 52.8975 24.1826C52.8974 25.1816 52.2912 26.2129 51.0127 27.2227C49.7396 28.228 47.8659 29.1553 45.5068 29.9434C40.7936 31.5177 34.2502 32.5 27 32.5C19.7497 32.5 13.2064 31.5178 8.49316 29.9434C6.13428 29.1554 4.26138 28.228 2.98828 27.2227C1.70975 26.2129 1.10362 25.1816 1.10351 24.1826Z" stroke="#2367F9"/>
<path opacity="0.3" d="M1.10351 18.5474C1.10351 17.5483 1.70964 16.5172 2.98828 15.5073C4.26135 14.502 6.1342 13.5746 8.49316 12.7866C13.2064 11.2122 19.7497 10.229 27 10.229C34.2503 10.229 40.7935 11.2122 45.5068 12.7866C47.8661 13.5747 49.7396 14.5019 51.0127 15.5073C52.2913 16.5172 52.8975 17.5483 52.8975 18.5474C52.8974 19.5463 52.2912 20.5777 51.0127 21.5874C49.7396 22.5928 47.8659 23.5201 45.5068 24.3081C40.7936 25.8825 34.2502 26.8647 27 26.8647C19.7497 26.8647 13.2064 25.8825 8.49316 24.3081C6.13428 23.5201 4.26138 22.5927 2.98828 21.5874C1.70975 20.5777 1.10362 19.5463 1.10351 18.5474Z" stroke="#2367F9"/>
</g>
<defs>
<clipPath id="clip0_2185_1260">
<rect width="54" height="54" fill="white"/>
</clipPath>
</defs>
</svg>
