<svg width="54" height="54" viewBox="0 0 54 54" fill="none" xmlns="http://www.w3.org/2000/svg">
<g clip-path="url(#clip0_2410_2605)">
<path opacity="0.3" d="M0.999999 27.1826C0.999998 26.1836 1.60612 25.1524 2.88476 24.1426C4.15783 23.1372 6.03068 22.2099 8.38965 21.4219C13.1029 19.8474 19.6462 18.8643 26.8965 18.8643C34.1467 18.8643 40.69 19.8475 45.4033 21.4219C47.7626 22.21 49.6361 23.1371 50.9092 24.1426C52.1878 25.1524 52.7939 26.1836 52.7939 27.1826C52.7938 28.1816 52.1877 29.2129 50.9092 30.2227C49.6361 31.228 47.7624 32.1553 45.4033 32.9434C40.69 34.5177 34.1467 35.5 26.8965 35.5C19.6462 35.5 13.1029 34.5178 8.38965 32.9434C6.03077 32.1554 4.15786 31.228 2.88476 30.2227C1.60623 29.2129 1.00011 28.1816 0.999999 27.1826Z" stroke="#2367F9"/>
<path d="M8.58448 8.87068C9.29092 8.16424 10.4486 7.86369 12.0668 8.05377C13.6779 8.24308 15.658 8.91166 17.8832 10.0225C22.3293 12.242 27.6513 16.1736 32.778 21.3003C37.9047 26.427 41.8363 31.749 44.0558 36.1951C45.1668 38.4206 45.836 40.401 46.0252 42.0122C46.2153 43.6304 45.9148 44.7881 45.2083 45.4945C44.5019 46.2008 43.344 46.5015 41.726 46.3114C40.1148 46.1221 38.1342 45.4529 35.9089 44.342C31.4629 42.1225 26.1414 38.1902 21.0148 33.0635C15.8881 27.9368 11.9558 22.6155 9.73629 18.1694C8.62549 15.9442 7.95694 13.9641 7.76758 12.353C7.57751 10.735 7.87817 9.57713 8.58448 8.87068Z" stroke="#3374FF"/>
<path opacity="0.3" d="M8.58552 45.4946C7.87908 44.7882 7.57854 43.6305 7.76862 42.0123C7.95792 40.4012 8.6265 38.4211 9.73733 36.1959C11.9568 31.7498 15.8884 26.4278 21.0151 21.3011C26.1418 16.1744 31.4639 12.2428 35.91 10.0233C38.1354 8.91231 40.1158 8.24315 41.727 8.05388C43.3452 7.8638 44.5029 8.16434 45.2094 8.87078C45.9157 9.57724 46.2163 10.7351 46.0263 12.3531C45.837 13.9643 45.1678 15.9449 44.0569 18.1702C41.8373 22.6162 37.905 27.9377 32.7784 33.0643C27.6516 38.191 22.3303 42.1233 17.8843 44.3428C15.6591 45.4536 13.6789 46.1222 12.0679 46.3115C10.4498 46.5016 9.29198 46.2009 8.58552 45.4946Z" stroke="#2367F9"/>
<path opacity="0.3" d="M26.8975 53.0791C25.8984 53.0791 24.8673 52.473 23.8574 51.1943C22.8521 49.9213 21.9247 48.0484 21.1367 45.6895C19.5623 40.9762 18.5791 34.4329 18.5791 27.1826C18.5791 19.9324 19.5623 13.3891 21.1367 8.67578C21.9248 6.31654 22.852 4.44305 23.8574 3.16992C24.8673 1.89128 25.8984 1.28516 26.8975 1.28516C27.8964 1.28526 28.9278 1.89139 29.9375 3.16992C30.9429 4.44304 31.8702 6.3167 32.6582 8.67578C34.2326 13.3891 35.2148 19.9324 35.2148 27.1826C35.2148 34.4329 34.2326 40.9762 32.6582 45.6895C31.8702 48.0483 30.9428 49.9212 29.9375 51.1943C28.9278 52.4729 27.8964 53.079 26.8975 53.0791Z" stroke="#2367F9"/>
</g>
<defs>
<clipPath id="clip0_2410_2605">
<rect width="54" height="54" fill="white"/>
</clipPath>
</defs>
</svg>
