<svg width="54" height="54" viewBox="0 0 54 54" fill="none" xmlns="http://www.w3.org/2000/svg">
<g clip-path="url(#clip0_2410_2619)">
<path opacity="0.3" d="M1.10351 35.4531C1.10351 34.4541 1.70964 33.4229 2.98828 32.4131C4.26135 31.4077 6.1342 30.4804 8.49316 29.6924C13.2064 28.118 19.7497 27.1348 27 27.1348C34.2503 27.1348 40.7935 28.118 45.5068 29.6924C47.8661 30.4805 49.7396 31.4076 51.0127 32.4131C52.2913 33.4229 52.8975 34.4541 52.8975 35.4531C52.8974 36.4521 52.2912 37.4834 51.0127 38.4932C49.7396 39.4985 47.8659 40.4258 45.5068 41.2139C40.7936 42.7882 34.2502 43.7705 27 43.7705C19.7497 43.7705 13.2064 42.7883 8.49316 41.2139C6.13428 40.4259 4.26138 39.4985 2.98828 38.4932C1.70975 37.4834 1.10362 36.4521 1.10351 35.4531Z" stroke="#2367F9"/>
<path d="M1.10351 29.8184C1.10351 28.8193 1.70964 27.7881 2.98828 26.7783C4.26135 25.773 6.1342 24.8456 8.49316 24.0576C13.2064 22.4832 19.7497 21.5 27 21.5C34.2503 21.5 40.7935 22.4832 45.5068 24.0576C47.8661 24.8457 49.7396 25.7729 51.0127 26.7783C52.2913 27.7881 52.8975 28.8193 52.8975 29.8184C52.8974 30.8173 52.2912 31.8487 51.0127 32.8584C49.7396 33.8638 47.8659 34.7911 45.5068 35.5791C40.7936 37.1535 34.2502 38.1357 27 38.1357C19.7497 38.1357 13.2064 37.1535 8.49316 35.5791C6.13428 34.7911 4.26138 33.8637 2.98828 32.8584C1.70975 31.8487 1.10362 30.8173 1.10351 29.8184Z" stroke="#3374FF"/>
<path opacity="0.3" d="M1.10351 24.1826C1.10351 23.1836 1.70964 22.1524 2.98828 21.1426C4.26135 20.1372 6.1342 19.2099 8.49316 18.4219C13.2064 16.8474 19.7497 15.8643 27 15.8643C34.2503 15.8643 40.7935 16.8475 45.5068 18.4219C47.8661 19.21 49.7396 20.1371 51.0127 21.1426C52.2913 22.1524 52.8975 23.1836 52.8975 24.1826C52.8974 25.1816 52.2912 26.2129 51.0127 27.2227C49.7396 28.228 47.8659 29.1553 45.5068 29.9434C40.7936 31.5177 34.2502 32.5 27 32.5C19.7497 32.5 13.2064 31.5178 8.49316 29.9434C6.13428 29.1554 4.26138 28.228 2.98828 27.2227C1.70975 26.2129 1.10362 25.1816 1.10351 24.1826Z" stroke="#2367F9"/>
<path opacity="0.3" d="M1.10351 18.5469C1.10351 17.5478 1.70964 16.5167 2.98828 15.5068C4.26135 14.5015 6.1342 13.5742 8.49316 12.7861C13.2064 11.2117 19.7497 10.2285 27 10.2285C34.2503 10.2285 40.7935 11.2117 45.5068 12.7861C47.8661 13.5742 49.7396 14.5014 51.0127 15.5068C52.2913 16.5167 52.8975 17.5478 52.8975 18.5469C52.8974 19.5458 52.2912 20.5772 51.0127 21.5869C49.7396 22.5923 47.8659 23.5196 45.5068 24.3076C40.7936 25.882 34.2502 26.8643 27 26.8643C19.7497 26.8642 13.2064 25.882 8.49316 24.3076C6.13428 23.5196 4.26138 22.5922 2.98828 21.5869C1.70975 20.5772 1.10362 19.5458 1.10351 18.5469Z" stroke="#2367F9"/>
</g>
<defs>
<clipPath id="clip0_2410_2619">
<rect width="54" height="54" fill="white"/>
</clipPath>
</defs>
</svg>
