<svg width="325" height="107" viewBox="0 0 325 107" fill="none" xmlns="http://www.w3.org/2000/svg">
<path d="M185.565 79.9838C187.672 79.9838 189.404 80.4016 190.743 81.258C192.073 82.0767 193.002 83.1911 193.517 84.5967L193.567 84.7283C194.07 86.0966 194.135 87.5875 193.776 89.1926L191.003 102.311V102.313C190.878 102.878 190.886 103.3 190.991 103.599C191.053 103.731 191.139 103.824 191.252 103.887C191.371 103.952 191.534 103.992 191.752 103.992C192.356 103.992 193.083 103.532 193.933 102.453L194.053 102.301L195.034 102.746L194.881 102.986C193.948 104.452 193.014 105.466 192.07 105.99C191.159 106.496 190.324 106.764 189.574 106.764C188.613 106.764 187.79 106.404 187.117 105.697L187.113 105.692L187.109 105.687C186.46 104.93 186.22 103.948 186.358 102.775L186.36 102.764L186.361 102.754L186.58 101.681C185.631 103.097 184.584 104.248 183.437 105.128V105.129C182.009 106.217 180.405 106.764 178.634 106.764C176.897 106.764 175.432 106.234 174.26 105.165C173.076 104.086 172.496 102.594 172.496 100.724C172.496 98.8917 173.023 97.3167 174.086 96.014H174.087C175.173 94.6905 176.644 93.6452 178.489 92.8735C180.33 92.0706 182.4 91.5536 184.698 91.3206L188.823 90.8941L189.234 88.8388C189.492 87.71 189.556 86.5996 189.427 85.507C189.301 84.4344 188.893 83.5639 188.21 82.8813C187.551 82.2216 186.474 81.8649 184.921 81.8649C183.322 81.8649 182.031 82.3265 181.028 83.2358C180.037 84.1331 179.613 85.3223 179.771 86.8385L179.772 86.847C179.841 87.819 179.616 88.6197 179.062 89.2112C178.557 89.7517 177.949 90.0325 177.248 90.0325C176.621 90.0324 176.102 89.8067 175.721 89.3489L175.719 89.3458L175.716 89.342C175.347 88.8632 175.169 88.2796 175.169 87.6072C175.169 86.8673 175.381 86.0711 175.788 85.2229L175.789 85.2191C176.234 84.3301 176.88 83.4978 177.724 82.7218C178.576 81.9045 179.661 81.2469 180.971 80.7432C182.292 80.235 183.825 79.9838 185.565 79.9838ZM232.406 79.9838C234.358 79.9838 236.086 80.4219 237.581 81.3052C239.105 82.1862 240.291 83.4239 241.137 85.0124L241.218 85.1626C242.046 86.7253 242.454 88.5658 242.455 90.6758C242.455 92.7518 242.086 94.7617 241.35 96.7037L241.214 97.0591C240.52 98.8231 239.561 100.412 238.337 101.824C237.062 103.334 235.552 104.543 233.807 105.449L233.805 105.45L233.481 105.609C231.851 106.379 230.089 106.764 228.199 106.764C226.278 106.764 224.551 106.325 223.025 105.443L223.024 105.442C221.532 104.56 220.346 103.323 219.467 101.735L219.467 101.733L219.311 101.422C218.568 99.8675 218.199 98.0817 218.199 96.0713C218.199 93.9968 218.551 92.0041 219.255 90.0952V90.0936L219.255 90.0921C219.991 88.1864 220.995 86.479 222.267 84.9721C223.542 83.4302 225.036 82.2206 226.749 81.347C228.501 80.4379 230.388 79.9838 232.406 79.9838ZM279.51 79.9838C281.618 79.9838 283.35 80.4016 284.688 81.258C286.019 82.0767 286.947 83.1911 287.463 84.5967L287.513 84.7283C288.016 86.0966 288.081 87.5875 287.721 89.1926L284.949 102.311V102.313C284.823 102.878 284.831 103.3 284.937 103.599C284.998 103.731 285.084 103.824 285.198 103.887C285.316 103.952 285.479 103.992 285.698 103.992C286.301 103.992 287.029 103.532 287.879 102.453L287.999 102.301L288.98 102.746L288.827 102.986C287.894 104.452 286.96 105.466 286.016 105.99C285.104 106.496 284.27 106.764 283.519 106.764C282.559 106.764 281.736 106.404 281.063 105.697L281.058 105.692L281.055 105.687C280.405 104.93 280.166 103.948 280.304 102.775L280.305 102.764L280.307 102.754L280.526 101.681C279.577 103.097 278.53 104.248 277.383 105.128V105.129C275.955 106.217 274.351 106.764 272.58 106.764C270.842 106.764 269.378 106.234 268.205 105.165C267.022 104.086 266.442 102.594 266.442 100.724C266.442 98.8917 266.969 97.3167 268.032 96.014H268.033C269.118 94.6905 270.589 93.6452 272.435 92.8735C274.276 92.0706 276.346 91.5536 278.643 91.3206L282.768 90.8941L283.18 88.8388C283.438 87.71 283.502 86.5996 283.373 85.507C283.247 84.4344 282.839 83.5639 282.156 82.8813C281.496 82.2216 280.419 81.8649 278.866 81.8649C277.267 81.8649 275.977 82.3265 274.973 83.2358C273.983 84.1331 273.559 85.3223 273.717 86.8385L273.718 86.847C273.787 87.819 273.562 88.6197 273.008 89.2112C272.503 89.7517 271.895 90.0325 271.193 90.0325C270.566 90.0324 270.048 89.8067 269.667 89.3489L269.664 89.3458L269.661 89.342C269.293 88.8632 269.115 88.2796 269.115 87.6072C269.115 86.8673 269.326 86.0711 269.733 85.2229L269.735 85.2191C270.179 84.3301 270.826 83.4978 271.669 82.7218C272.522 81.9045 273.607 81.2469 274.917 80.7432C276.238 80.235 277.771 79.9838 279.51 79.9838ZM324.526 88.1514H323.401L323.358 87.9571C322.937 86.0478 322.149 84.5615 321.004 83.4804L321.003 83.4789L321.002 83.4773C319.9 82.4069 318.463 81.8649 316.669 81.8649C315.232 81.8649 314.09 82.2624 313.22 83.0392L313.219 83.0407L313.216 83.0423C312.354 83.7817 311.917 84.7823 311.917 86.0721C311.917 86.9447 312.165 87.661 312.649 88.2373C313.187 88.8376 313.871 89.3634 314.704 89.8126C315.592 90.2732 316.514 90.7345 317.468 91.1952C318.434 91.6288 319.352 92.1452 320.219 92.745C321.138 93.3237 321.873 94.0581 322.421 94.9465C323.014 95.8548 323.302 96.9945 323.302 98.3487C323.302 100.952 322.419 103.022 320.64 104.528C318.904 105.991 316.682 106.714 313.996 106.714C312.659 106.714 311.526 106.564 310.602 106.256L310.598 106.255C309.736 105.957 309.004 105.673 308.402 105.405L308.398 105.405C307.61 105.043 307.076 104.926 306.76 104.978L306.75 104.98L306.74 104.98C306.665 104.987 306.531 105.055 306.361 105.333C306.197 105.603 306.031 106.015 305.869 106.584L305.817 106.764H304.676L305.149 97.9036H306.286L306.32 98.1103C306.676 100.276 307.527 101.935 308.861 103.111C310.231 104.257 311.889 104.833 313.848 104.833C315.451 104.833 316.726 104.402 317.695 103.558C318.692 102.686 319.194 101.534 319.194 100.081C319.194 99.1058 318.928 98.3245 318.411 97.717L318.409 97.7147L318.408 97.7124C317.868 97.0455 317.182 96.4707 316.348 95.9892C315.497 95.4982 314.579 95.0226 313.595 94.5633C312.595 94.0967 311.66 93.5791 310.792 93.0112C309.909 92.4342 309.177 91.7368 308.597 90.9181L308.595 90.9157L308.594 90.9142C308 90.0408 307.709 88.983 307.709 87.7551C307.709 86.1304 308.1 84.7272 308.891 83.5578C309.676 82.3968 310.735 81.5092 312.061 80.8972L312.063 80.8965C313.418 80.2868 314.905 79.9838 316.521 79.9838C317.628 79.9838 318.596 80.1344 319.42 80.4421C320.217 80.7077 320.903 80.9744 321.475 81.2433L321.607 81.3029C322.249 81.5845 322.722 81.7127 323.041 81.7162C323.116 81.7067 323.237 81.6406 323.384 81.3834C323.532 81.125 323.674 80.7264 323.804 80.1742L323.849 79.9838H325L324.526 88.1514ZM206.598 81.8974L206.413 81.9105C205.045 82.0082 204.123 82.3201 203.59 82.8008C203.078 83.2636 202.888 83.921 203.073 84.8328V84.8351L203.074 84.8374L205.879 100.142L215.342 84.7523L215.343 84.7507L215.344 84.75C215.964 83.7707 216.031 83.1276 215.776 82.7241C215.645 82.5163 215.408 82.332 215.029 82.1892C214.65 82.0463 214.146 81.9517 213.508 81.9113L213.221 81.8927L213.472 80.7238H221.452L221.203 81.8881L221.028 81.9098C219.788 82.061 218.538 83.0532 217.296 85.0139L203.71 106.762H202.677L198.381 84.9303C198.188 83.9663 197.867 83.2487 197.435 82.7559C197.007 82.2684 196.459 81.9858 195.774 81.9098L195.503 81.8796L195.75 80.7238H206.849L206.598 81.8974ZM300.711 80.7215H307.79L307.387 82.6018H300.308L296.786 99.2862C296.461 100.814 296.521 101.971 296.915 102.791C297.289 103.567 298.054 103.987 299.317 103.987C299.832 103.987 300.388 103.851 300.988 103.568C301.594 103.248 302.136 102.865 302.613 102.42L302.787 102.257L303.344 102.815L303.237 102.983C302.622 103.939 301.756 104.802 300.646 105.576C299.52 106.36 298.333 106.759 297.089 106.759C295.112 106.759 293.651 106.072 292.77 104.662C291.899 103.269 291.724 101.463 292.194 99.2815L295.743 82.6018H291.684L291.929 81.4569L292.082 81.4213C294.163 80.9335 295.927 80.1227 297.38 78.9937C298.831 77.8328 299.996 76.2978 300.873 74.3816L300.939 74.2368H302.097L300.711 80.7215ZM266.176 88.6461H265.038L265.009 88.4332C264.683 86.1196 263.954 84.4665 262.856 83.4309C261.752 82.3897 260.363 81.8649 258.67 81.8649C257.101 81.8649 255.716 82.2957 254.507 83.1553C253.282 84.0254 252.266 85.1378 251.457 86.4956C250.643 87.8635 250.025 89.2959 249.602 90.7927C249.177 92.2942 248.967 93.6575 248.967 94.8838C248.967 97.2478 249.566 99.2222 250.748 100.822C251.947 102.367 253.699 103.151 256.046 103.151C257.498 103.15 258.894 102.732 260.237 101.887L260.367 101.804C261.782 100.871 262.908 99.6163 263.748 98.0344L263.838 97.8641L264.891 98.1273L264.791 98.3874C263.854 100.832 262.461 102.832 260.61 104.38C258.748 105.937 256.529 106.714 253.967 106.714C251.099 106.714 248.723 105.733 246.858 103.766C244.988 101.794 244.067 99.0696 244.067 95.6262C244.067 93.6475 244.436 91.735 245.174 89.8908C245.91 88.0171 246.932 86.3422 248.238 84.8684L248.492 84.5897C249.772 83.2134 251.23 82.1147 252.866 81.2967C254.617 80.4213 256.487 79.9838 258.472 79.9838C259.739 79.9838 260.79 80.1169 261.616 80.3917C262.443 80.6565 263.11 80.8897 263.612 81.0908L263.618 81.0923L263.622 81.0946C263.946 81.24 264.218 81.342 264.441 81.4035C264.655 81.4626 264.809 81.4797 264.912 81.4716C264.962 81.4551 265.065 81.3849 265.206 81.1628C265.348 80.9376 265.501 80.6023 265.664 80.1479L265.723 79.9838H266.806L266.176 88.6461ZM231.812 81.8649C230.422 81.8649 229.193 82.3363 228.115 83.2877C227.02 84.254 226.08 85.4982 225.3 87.0258C224.551 88.5585 223.98 90.1735 223.588 91.8702V91.871C223.195 93.5393 223 95.0713 223 96.4676C223 98.0254 223.227 99.4477 223.678 100.737C224.161 102.026 224.834 103.046 225.69 103.807C226.531 104.522 227.56 104.883 228.792 104.883C230.184 104.883 231.413 104.426 232.491 103.508C233.586 102.542 234.507 101.315 235.254 99.8218L235.255 99.8203C236.038 98.2869 236.625 96.6882 237.016 95.0247C237.409 93.3242 237.604 91.743 237.604 90.2802C237.604 88.6866 237.377 87.263 236.926 86.0071L236.925 86.0056C236.475 84.7211 235.806 83.7223 234.922 82.9966L234.915 82.9904C234.073 82.242 233.044 81.8649 231.812 81.8649ZM184.949 93.1986L184.511 93.259C182.35 93.5899 180.651 94.3453 179.396 95.5101C178.056 96.7545 177.396 98.2089 177.396 99.883C177.396 101.054 177.727 101.922 178.356 102.523C179.034 103.139 179.849 103.448 180.812 103.448C181.938 103.448 183.026 103.058 184.078 102.26L184.08 102.259L184.081 102.258C185.166 101.461 186.161 100.39 187.065 99.0415L188.417 92.7929L184.949 93.1986ZM278.895 93.1986L278.457 93.259C276.295 93.5899 274.597 94.3453 273.342 95.5101C272.002 96.7545 271.342 98.2089 271.342 99.883C271.342 101.054 271.672 101.922 272.302 102.523C272.98 103.139 273.794 103.448 274.758 103.448C275.884 103.448 276.971 103.058 278.024 102.26L278.026 102.259L278.027 102.258C279.111 101.461 280.106 100.39 281.01 99.0415L282.363 92.7929L278.895 93.1986Z" fill="white"/>
<path d="M104.332 0C110.07 6.02799e-06 115.314 1.11069 120.065 3.33176C124.815 5.49111 128.609 8.76099 131.447 13.1412C134.347 17.4599 135.797 22.8584 135.797 29.3364C135.797 34.0253 135.026 38.7761 133.483 43.5884C131.941 48.339 129.566 52.7195 126.358 56.7297C123.149 60.6782 119.047 63.8559 114.049 66.2621C109.114 68.6682 103.252 69.8717 96.4654 69.8717C90.7277 69.8717 85.4526 68.7914 80.6403 66.6321C75.8897 64.411 72.0951 61.1413 69.2571 56.8226C66.4191 52.4421 65.0003 47.0127 65.0003 40.5346C65.0003 35.784 65.7717 31.0331 67.3141 26.2825C68.8565 21.532 71.2316 17.1826 74.4397 13.2341C77.6479 9.22386 81.7202 6.01505 86.6559 3.60889C91.6533 1.20281 97.5454 0 104.332 0ZM30.8784 0C36.7336 0 41.8803 0.924618 46.3179 2.77363C50.7553 4.62259 54.2376 7.18017 56.7645 10.4466C59.2915 13.7132 60.5858 17.5351 60.6474 21.9111H40.8628C40.4314 20.1237 39.3528 18.7364 37.627 17.7503C35.963 16.7026 33.7134 16.1788 30.8784 16.1788C28.2284 16.1789 26.1021 16.6409 24.4997 17.5653C22.8973 18.4281 22.0954 19.5686 22.0954 20.9861C22.0954 22.2187 22.6815 23.2356 23.8526 24.0368C25.0852 24.7764 26.7493 25.3314 28.8448 25.7011L38.5521 27.3655C42.8047 28.0434 46.7184 29.0908 50.293 30.5083C53.8677 31.9259 56.7338 33.9604 58.891 36.6106C61.1097 39.1992 62.2189 42.6814 62.2189 47.0572C62.2189 52.1112 60.8941 56.3333 58.2438 59.7232C55.5937 63.0513 52.0497 65.5783 47.6123 67.304C43.1746 68.9681 38.2436 69.7997 32.8198 69.7997C23.5132 69.7997 16.0552 67.7355 10.4466 63.6061C4.89961 59.415 1.41756 53.4976 0 45.855H20.5239C21.3868 48.2587 22.8046 50.1697 24.7769 51.5873C26.8107 52.9432 29.3377 53.6209 32.3577 53.6209C34.823 53.6209 37.042 53.1894 39.0142 52.3266C41.048 51.4637 42.065 50.0771 42.065 48.1665C42.065 46.5641 41.1708 45.3932 39.3835 44.6536C37.6578 43.9141 35.2236 43.2668 32.0806 42.7122L24.0368 41.325C21.2635 40.8319 18.5518 40.1237 15.9017 39.1993C13.2515 38.2747 10.8473 37.0414 8.69013 35.5006C6.59473 33.9598 4.90003 32.0799 3.60579 29.8612C2.37316 27.5808 1.75645 24.8998 1.75645 21.8182C1.75646 18.0586 2.58885 14.8228 4.25295 12.1109C5.91704 9.33747 8.13604 7.05669 10.9095 5.26935C13.7445 3.48213 16.8876 2.15714 20.3389 1.29431C23.7904 0.431441 27.3036 3.40835e-06 30.8784 0ZM167.422 1.57299C171.797 1.57301 175.835 1.91222 179.533 2.59016C183.292 3.20651 186.559 4.31564 189.332 5.91805C192.105 7.45889 194.263 9.64734 195.804 12.4825C197.344 15.256 198.115 18.7999 198.115 23.1141C198.115 27.4283 197.098 31.188 195.064 34.3928C193.03 37.5361 190.071 39.909 186.188 41.5115L202.09 68.5999H182.956C181.354 68.5999 179.875 67.7392 179.083 66.3464L168.24 47.2778C167.448 45.8851 165.969 45.0244 164.367 45.0244H159.009V68.5999H139.686V1.57299H167.422ZM257.431 18.1219H223.687V26.627H255.675V43.268H223.687V51.9581H257.801V68.5999H204.364V1.57299H257.431V18.1219ZM283.63 1.57299C285.338 1.57311 286.897 2.55009 287.641 4.08806L307.04 44.1922V1.57299H324.883V68.5999H303.833C302.121 68.5999 300.559 67.6177 299.817 66.0739L280.507 25.8877V68.5999H262.664V1.57299H283.63ZM105.906 10.7353C103.08 10.4174 100.467 11.1402 98.0461 12.9183C95.5878 14.7242 93.3804 17.1572 91.4283 20.2297C89.5368 23.3199 87.99 26.6257 86.7875 30.1468L86.7867 30.1492C85.5891 33.6096 84.8258 36.8246 84.4915 39.7961C84.1185 43.1112 84.2394 46.1901 84.8468 49.0366C85.5213 51.8907 86.6443 54.215 88.2026 56.0299C89.7416 57.7434 91.7481 58.7483 94.2546 59.0303C97.0839 59.3486 99.6937 58.6582 102.105 56.9503C104.562 55.1446 106.73 52.7447 108.606 49.7387L108.608 49.7341C110.567 46.6502 112.144 43.3834 113.338 39.9331C114.543 36.4037 115.318 33.0828 115.669 29.9696C116.05 26.5782 115.928 23.497 115.312 20.7213L115.311 20.7174C114.704 17.8809 113.582 15.6021 111.959 13.8557L111.946 13.8403C110.413 12.0552 108.411 11.0172 105.906 10.7353ZM159.009 30.4178H169.64C172.475 30.4178 174.571 29.8011 175.927 28.5684C177.283 27.3358 177.96 25.764 177.96 23.8533C177.96 21.9428 177.283 20.3709 175.927 19.1383C174.571 17.844 172.475 17.1968 169.64 17.1968H159.009V30.4178Z" fill="white"/>
</svg>
