<svg width="49" height="51" viewBox="0 0 49 51" fill="none" xmlns="http://www.w3.org/2000/svg">
<path d="M40.0062 21.5246C37.2836 20.2337 34.8427 18.4177 32.8237 16.1811C30.8461 13.9887 29.319 11.4288 28.3293 8.64713C27.3663 5.91912 26.9474 3.02881 27.0962 0.139648H23.4184C23.5715 3.45119 24.3746 6.70022 25.7819 9.70175C27.1649 12.6478 29.1148 15.2924 31.5203 17.4845C33.879 19.6236 36.6356 21.2775 39.633 22.3521C41.8751 23.1556 44.2251 23.6187 46.6044 23.7259H0.0917969V27.2251H46.6044C44.2251 27.3323 41.8751 27.7954 39.633 28.5989C36.6364 29.6751 33.8801 31.3289 31.5203 33.4665C29.1125 35.6692 27.1626 38.3248 25.7819 41.2817C24.3758 44.2836 23.5728 47.5325 23.4184 50.8438H27.0962C26.9474 47.9547 27.3663 45.0643 28.3293 42.3363C29.3284 39.5498 30.8645 36.9864 32.8508 34.7915C34.8712 32.5564 37.3117 30.7408 40.0332 29.448C42.8119 28.1333 45.822 27.378 48.8922 27.2251V23.7259C45.8143 23.5833 42.7947 22.8353 40.0062 21.5246Z" fill="black"/>
</svg>
